HIERARCHY
ROOT RootJoint
{
    OFFSET   0.000000   0.000000   0.000000
    CHANNELS 6 Xposition Yposition Zposition Xrotation Yrotation Zrotation
    JOINT pelvis_lowerback
    {
        OFFSET   0.000000   0.093605   0.000000
        CHANNELS 3 Xrotation Yrotation Zrotation
        JOINT lowerback_torso
        {
            OFFSET   0.000000   0.100000   0.000000
            CHANNELS 3 Xrotation Yrotation Zrotation
            JOINT torso_head
            {
                OFFSET   0.000000   0.282350   0.000000
                CHANNELS 3 Xrotation Yrotation Zrotation
                End Site
                {
                    OFFSET   0.000000   0.192650   0.000000
                }
            }
            JOINT rTorso_Clavicle
            {
                OFFSET  -0.001000   0.157500   0.000000
                CHANNELS 3 Xrotation Yrotation Zrotation
                JOINT rShoulder
                {
                    OFFSET  -0.117647   0.000000   0.000000
                    CHANNELS 3 Xrotation Yrotation Zrotation
                    JOINT rElbow
                    {
                        OFFSET  -0.245000   0.000000   0.000000
                        CHANNELS 3 Xrotation Yrotation Zrotation
                        JOINT rWrist
                        {
                            OFFSET  -0.240000   0.000000   0.000000
                            CHANNELS 3 Xrotation Yrotation Zrotation
                            End Site
                            {
                                OFFSET  -0.116353  -0.002500   0.000000
                            }
                        }
                    }
                }
            }
            JOINT lTorso_Clavicle
            {
                OFFSET   0.001000   0.157500   0.000000
                CHANNELS 3 Xrotation Yrotation Zrotation
                JOINT lShoulder
                {
                    OFFSET   0.117647   0.000000   0.000000
                    CHANNELS 3 Xrotation Yrotation Zrotation
                    JOINT lElbow
                    {
                        OFFSET   0.245000   0.000000   0.000000
                        CHANNELS 3 Xrotation Yrotation Zrotation
                        JOINT lWrist
                        {
                            OFFSET   0.240000   0.000000   0.000000
                            CHANNELS 3 Xrotation Yrotation Zrotation
                            End Site
                            {
                                OFFSET   0.116353  -0.002500   0.000000
                            }
                        }
                    }
                }
            }
        }
    }
    JOINT rHip
    {
        OFFSET  -0.100000  -0.051395   0.000000
        CHANNELS 3 Xrotation Yrotation Zrotation
        JOINT rKnee
        {
            OFFSET   0.000000  -0.410000   0.000000
            CHANNELS 3 Xrotation Yrotation Zrotation
            JOINT rAnkle
            {
                OFFSET   0.000000  -0.390000   0.000000
                CHANNELS 3 Xrotation Yrotation Zrotation
                JOINT rToeJoint
                {
                    OFFSET   0.000000  -0.050000   0.130000
                    CHANNELS 3 Xrotation Yrotation Zrotation
                    End Site
                    {
                        OFFSET  -0.010000   0.002000   0.060000
                    }
                }
            }
        }
    }
    JOINT lHip
    {
        OFFSET   0.100000  -0.051395   0.000000
        CHANNELS 3 Xrotation Yrotation Zrotation
        JOINT lKnee
        {
            OFFSET   0.000000  -0.410000   0.000000
            CHANNELS 3 Xrotation Yrotation Zrotation
            JOINT lAnkle
            {
                OFFSET   0.000000  -0.390000   0.000000
                CHANNELS 3 Xrotation Yrotation Zrotation
                JOINT lToeJoint
                {
                    OFFSET   0.000000  -0.050000   0.130000
                    CHANNELS 3 Xrotation Yrotation Zrotation
                    End Site
                    {
                        OFFSET   0.010000   0.002000   0.060000
                    }
                }
            }
        }
    }
}
MOTION
Frames: 15
Frame Time:   0.008333
 -2.376719   0.925631   3.975860   0.000000   0.000000   0.000000   0.000000   0.000000   0.000000   0.000000   0.000000   0.000000   0.000000   0.000000   0.000000   0.000000   0.000000   0.000000   0.000000   0.000000   0.000000   0.000000   0.000000   0.000000   0.000000   0.000000   0.000000   0.000000   0.000000   0.000000   0.000000   0.000000   0.000000   0.000000   0.000000   0.000000   0.000000   0.000000   0.000000   0.000000   0.000000   0.000000   0.000000   0.000000   0.000000   0.000000   0.000000   0.000000   0.000000   0.000000   0.000000   0.000000   0.000000   0.000000   0.000000   0.000000   0.000000   0.000000   0.000000   0.000000   0.000000   0.000000   0.000000
 -2.376840   0.926291   3.975891   0.466276   0.185754  -0.197599  -0.675680   0.058675   0.176020   0.170204  -0.204760   0.074514   0.025811   0.056381   0.100219   0.279413  -0.518351   0.318530   0.498001   0.133035   2.110126   0.017569   0.808368  -0.005278   0.228198  -0.054905  -3.020020   0.354994   0.321888  -0.673366   1.044628  -0.068204  -1.906470   0.016045  -0.724434   0.008657   0.336387  -0.049898   3.002204  -0.708047  -0.263365  -0.012647   0.792456   0.001433  -0.000533  -0.963341  -0.743213  -0.039017  -0.262644  -0.000565   0.001872  -0.910112   0.002601   0.510227   1.208956  -0.003300   0.002068  -0.947532   0.294911  -0.071202   0.359112  -0.000762   0.001522
 -2.377020   0.927394   3.976262   0.890205   0.385486  -0.416241  -1.343310   0.112415   0.355380   0.322829  -0.423028   0.162216   0.061859   0.112645   0.215964   0.554141  -1.069031   1.378934   0.982856   0.245417   4.811518   0.039721   1.573088  -0.008593   0.490050   0.072187  -5.316913   0.704857   0.651656  -2.114424   2.070656  -0.151442  -4.437686   0.036622  -1.410759   0.014574   0.725509  -0.254710   5.261982  -1.328656  -0.520858  -0.216575   1.616533   0.004119  -0.000883  -1.867489  -1.448507  -0.090376  -0.571022  -0.001718   0.003514  -1.738103   0.007581   1.274786   2.457304  -0.008540   0.004290  -1.828766   0.580989  -0.129427   0.667408  -0.001921   0.002587
 -2.377224   0.928497   3.976897   1.291414   0.573425  -0.625303  -2.003610   0.155479   0.516844   0.441990  -0.636311   0.239303   0.096404   0.165830   0.329545   0.826173  -1.609469   2.895769   1.455220   0.352351   7.902461   0.060638   2.277735  -0.010261   0.743575   0.190040  -6.747700   1.042191   0.969441  -4.006206   3.075346  -0.264296  -7.376319   0.056256  -2.044455   0.018142   1.103798  -0.456424   6.628889  -1.882513  -0.757327  -0.607857   2.409061   0.007350  -0.001180  -2.711281  -2.108823  -0.150296  -0.861340  -0.003041   0.004544  -2.484116   0.002650   2.213093   3.646906  -0.014304   0.006125  -2.649772   0.852593  -0.177374   0.947993  -0.003199   0.003279
 -2.377440   0.929274   3.977718   1.674967   0.739654  -0.820402  -2.651585   0.190256   0.658331   0.529127  -0.840349   0.301618   0.127220   0.215669   0.436919   1.100122  -2.129930   4.669113   1.918720   0.464807  11.254131   0.078008   2.927233  -0.010821   0.980952   0.270082  -7.529032   1.370203   1.271795  -6.141450   4.062344  -0.418981 -10.586262   0.072745  -2.630067   0.020098   1.462733  -0.633027   7.328340  -2.386047  -0.972659  -1.155558   3.159615   0.010629  -0.001521  -3.499522  -2.726523  -0.216853  -1.132555  -0.004345   0.005129  -3.160877  -0.014449   3.281682   4.767411  -0.019849   0.007521  -3.415927   1.109364  -0.216543   1.200525  -0.004391   0.003654
 -2.377658   0.929487   3.978664   2.040457   0.880140  -1.001793  -3.282097   0.218675   0.780998   0.590369  -1.033860   0.349703   0.154638   0.262278   0.537318   1.377757  -2.626629   6.565300   2.374871   0.588983  14.777780   0.091113   3.526525  -0.010675   1.201000   0.313246  -7.870788   1.690515   1.557219  -8.384527   5.032331  -0.622733 -13.975230   0.085378  -3.172150   0.020995   1.800945  -0.785369   7.576543  -2.848751  -1.167412  -1.827969   3.866837   0.013643  -0.001921  -4.236249  -3.303991  -0.288339  -1.384866  -0.005514   0.005394  -3.776762  -0.044053   4.447706   5.820458  -0.024769   0.008516  -4.131104   1.351500  -0.248178   1.428130  -0.005399   0.003792
 -2.377871   0.928960   3.979684   2.386704   0.993610  -1.170350  -3.891051   0.241769   0.886604   0.631908  -1.216878   0.384983   0.179181   0.305848   0.630799   1.659170  -3.097480   8.496576   2.823826   0.729032  18.413433   0.100063   4.080082  -0.010107   1.404748   0.325115  -7.929811   2.003511   1.824407 -10.647364   5.984023  -0.880084 -17.481015   0.094216  -3.674768   0.021223   2.119279  -0.917843   7.534212  -3.277399  -1.342320  -2.596906   4.531455   0.016213  -0.002361  -4.925057  -3.843522  -0.363288  -1.618729  -0.006480   0.005429  -4.338015  -0.085646   5.683602   6.809409  -0.028857   0.009164  -4.798737   1.579380  -0.273372   1.633983  -0.006185   0.003761
 -2.377879   0.926939   3.980483   2.654304   0.993529  -1.245614  -4.280773   0.292839   1.006477   0.563143  -1.304137   0.291866   0.024767   0.244819   0.671408   1.833159  -3.400207   9.776902   3.244343   0.822393  21.927878   0.104802   4.668812  -0.009412   1.464841   0.184782  -6.789702   2.251096   2.112205 -12.073245   6.593492  -1.304126 -20.976389   0.095936  -4.138921   0.019695   2.320303  -1.030138   6.252476  -3.676833  -1.811513  -3.431782   5.184873   0.017841  -0.005140  -5.209413  -4.468631  -0.226436  -1.590036  -0.004979   0.004078  -4.596453   0.194391   6.728316   6.878861  -0.023642   0.007604  -5.037319   1.977315  -0.355232   1.925445  -0.007102   0.004947
 -2.377820   0.923656   3.981030   2.917203   1.013281  -1.305154  -4.621370   0.331295   1.124979   0.486888  -1.381247   0.190454  -0.137200   0.183128   0.698583   1.982113  -3.626600  10.768917   3.617072   0.963535  25.075267   0.104273   5.230766  -0.008856   1.524030   0.077974  -5.719091   2.467185   2.334211 -13.194047   7.125912  -1.755576 -24.100479   0.093818  -4.584298   0.018200   2.506414  -1.188091   5.041139  -4.072302  -2.267653  -4.231888   5.793321   0.018486  -0.007015  -5.468183  -5.058386  -0.102831  -1.521046  -0.003517   0.002661  -4.888805   0.461520   7.671911   6.824130  -0.018515   0.005870  -5.265128   2.351771  -0.429467   2.194842  -0.007467   0.005709
 -2.377728   0.919251   3.981410   3.161751   1.046095  -1.361953  -4.919927   0.369692   1.241750   0.419602  -1.449276   0.097119  -0.290049   0.125114   0.722319   2.108137  -3.800049  11.555849   3.945238   1.136509  27.912892   0.100506   5.765925  -0.008415   1.590260   0.024629  -4.882481   2.655588   2.507635 -14.099646   7.591452  -2.217487 -26.911855   0.089306  -5.008059   0.016724   2.688213  -1.380982   4.075310  -4.439282  -2.688975  -4.977848   6.359170   0.018401  -0.008097  -5.709123  -5.609392   0.009682  -1.454194  -0.002393   0.001591  -5.208667   0.704176   8.535454   6.739076  -0.014245   0.004385  -5.479643   2.701216  -0.497309   2.437896  -0.007421   0.006070
 -2.377614   0.913826   3.981683   3.386988   1.084849  -1.418090  -5.184957   0.412344   1.356353   0.361809  -1.505759   0.013898  -0.431849   0.070934   0.744276   2.214208  -3.935219  12.190094   4.233481   1.328597  30.488497   0.094804   6.273441  -0.008039   1.660644   0.015245  -4.245513   2.821352   2.649023 -14.842563   7.999341  -2.676388 -29.459098   0.083389  -5.408492   0.015248   2.863809  -1.592502   3.320082  -4.773705  -3.077893  -5.666426   6.887899   0.017817  -0.008624  -5.933717  -6.123732   0.112396  -1.391733  -0.001551   0.000806  -5.544183   0.923758   9.325708   6.641955  -0.010806   0.003177  -5.680563   3.027229  -0.559433   2.660129  -0.007124   0.006150
 -2.377992   0.912900   3.982246   3.575021   0.894041  -0.798046  -5.479907   0.562233   0.860506   0.295886  -1.475118  -0.274821  -0.549515   0.024754   0.751460   2.296653  -4.023651  13.130877   4.478991   1.550780  33.017545   0.089790   6.751244  -0.007091   1.735919   0.019544  -3.744586   2.996494   2.808814 -15.665043   8.372907  -3.088646 -31.787254   0.077155  -5.758484   0.013769   3.022072  -1.669980   2.845853  -5.118299  -3.401871  -6.808960   7.341599   0.015992  -0.009542  -6.129526  -6.606891   0.203688  -1.224666  -0.000550  -0.000894  -5.927617   1.022957   8.764754   7.168869  -0.008851   0.002128  -5.717848   3.119018  -1.215743   2.160716  -0.008374   0.005045
 -2.379152   0.912648   3.982963   3.719367   0.640797  -0.622744  -5.747187   0.690968   0.797856   0.227602  -1.438438  -0.448111  -0.668626  -0.020250   0.741594   2.367448  -4.095302  13.842027   4.695264   1.777136  35.344138   0.083800   7.207302  -0.006098   1.809025   0.081480  -3.139384   3.166644   2.960444 -16.383193   8.704645  -3.495392 -34.017552   0.070869  -6.095340   0.012460   3.173993  -1.789546   2.259169  -5.448113  -3.763423  -7.220121   7.710485   0.013252  -0.009890  -6.320173  -7.084424   0.337163  -1.119006  -0.000321  -0.001755  -6.149750   1.251688   8.708793   7.457683  -0.007310   0.001704  -5.746169   3.394442  -1.374740   1.860433  -0.006896   0.003330
 -2.380778   0.912708   3.983647   3.804307   0.366774  -0.615823  -5.782122   0.824740   0.735907   0.018045  -1.388830  -0.447738  -0.825641  -0.129789   0.742308   2.427983  -4.183436  14.050005   4.973576   2.086832  37.229548   0.075224   7.657839  -0.005668   1.833066   0.233879  -1.779774   3.333228   3.166158 -16.552649   8.819426  -3.879251 -35.918794   0.066041  -6.580121   0.011018   3.295088  -1.975578   0.881741  -5.587749  -4.098986  -7.187611   7.673017   0.010640  -0.007707  -6.073810  -7.373982   0.537660  -0.863394  -0.000688  -0.003425  -6.189671   1.543084   8.852501   7.495246  -0.005887   0.001376  -5.772585   3.661844  -1.375902   2.017453  -0.005666   0.003076
 -2.382440   0.912823   3.984180   3.932809   0.159400  -0.627801  -5.799279   0.925333   0.664461  -0.190985  -1.362442  -0.439019  -0.981237  -0.234940   0.746100   2.465569  -4.248222  13.935134   5.216200   2.384873  38.777074   0.065415   8.084521  -0.005306   1.858401   0.418136  -0.684211   3.456269   3.328028 -16.397390   8.906526  -4.242400 -37.481329   0.059145  -7.043846   0.009790   3.405883  -2.238652  -0.233990  -5.717385  -4.361994  -7.110372   7.570023   0.008621  -0.005740  -5.878367  -7.600316   0.655065  -0.612611  -0.000890  -0.004257  -6.243628   1.799881   9.008794   7.436456  -0.004650   0.001065  -5.845588   3.905259  -1.352199   2.181458  -0.004716   0.002895
